<svg
  width="35160"
  height="30160"
  viewBox="0 0 35160 30160"
  fill="none"
  xmlns="http://www.w3.org/2000/svg"
>
  <!-- Top Left -->
  <path
    d="M2703.77 80H9705.16C10187.6 80 10578.6 474.298 10578.6 960.689V10138.2C10578.6 10429.7 10344.3 10665.9 10055.2 10665.9H603.354C314.313 10665.9 80 10429.7 80 10138.2V2725.6C80 1264.48 1254.7 80 2703.77 80Z"
    fill="#0B132B"
    stroke="white"
    stroke-width="160"
  />

  <!-- Top Right -->
  <path
    d="M25454.8 80.1094H32456.2C33905.3 80.1094 35080 1264.58 35080 2725.71V10138.3C35080 10429.8 34845.7 10666 34556.6 10666H25104.8C24815.7 10666 24581.4 10429.8 24581.4 10138.3V960.798C24581.4 474.407 24972.4 80.1094 25454.8 80.1094Z"
    fill="#14B8A6"
    stroke="white"
    stroke-width="160"
  />

  <!-- Center -->
  <path
    d="M13380.5 5452.96H21779.4C22328.6 5452.96 22749.3 5824.69 22749.3 6255.41V18609.8C22749.3 19040.5 22328.6 19412.2 21779.4 19412.2H13380.5C12831.3 19412.2 12410.7 19040.5 12410.7 18609.8V6255.41C12410.7 5824.69 12831.3 5452.96 13380.5 5452.96Z"
    fill="#0B132B"
    stroke="white"
    stroke-width="160"
  />

  <!-- Bottom Right -->
  <path
    d="M25104.8 12434.5H34556.6C34845.7 12434.5 35080 12670.7 35080 12962.2V29199.3C35080 29685.7 34689 30080 34206.6 30080H25454.8C24972.4 30080 24581.4 29685.7 24581.4 29199.3V12962.2C24581.4 12670.7 24815.7 12434.5 25104.8 12434.5Z"
    fill="#F97316"
    stroke="white"
    stroke-width="160"
  />

  <!-- Bottom Left -->
  <path
    d="M603.354 12434.3H10055.2C10344.3 12434.3 10578.6 12670.6 10578.6 12962.1V29199.2C10578.6 29685.6 10187.6 30079.9 9705.16 30079.9H953.423C471.045 30079.9 80 29685.6 80 29199.2V12962.1C80 12670.6 314.313 12434.3 603.354 12434.3Z"
    fill="#14B8A6"
    stroke="white"
    stroke-width="160"
  />
</svg>